<svg width="139" height="42" viewBox="0 0 139 42" fill="none" xmlns="http://www.w3.org/2000/svg">
<g clip-path="url(#clip0_652_744)">
<rect y="1.00024" width="139" height="40" fill="#222222"/>
<path fill-rule="evenodd" clip-rule="evenodd" d="M31.8407 25.813C31.248 27.1267 30.9643 27.7132 30.2013 28.8742C29.1363 30.4955 27.6356 32.5142 25.7763 32.5311C24.1235 32.5464 23.6994 31.4555 21.4569 31.468C19.2144 31.4801 18.7461 32.5502 17.0933 32.5352C15.2337 32.518 13.8116 30.695 12.7468 29.0742C9.76908 24.5415 9.45801 19.2219 11.2942 16.3941C12.5995 14.3843 14.6578 13.2078 16.5939 13.2078C18.5648 13.2078 19.8039 14.2887 21.4334 14.2887C23.0141 14.2887 23.9778 13.2061 26.2562 13.2061C27.9786 13.2061 29.8036 14.1437 31.1042 15.7659C26.8435 18.1005 27.5355 24.1862 31.8407 25.813Z" fill="white"/>
<path fill-rule="evenodd" clip-rule="evenodd" d="M24.528 11.3954C25.3554 10.3329 25.9846 8.83166 25.7564 7.2981C24.4044 7.3912 22.8219 8.2516 21.8981 9.37334C21.0597 10.3919 20.3678 11.9023 20.6372 13.37C22.1136 13.4157 23.6411 12.5339 24.528 11.3954Z" fill="white"/>
<path fill-rule="evenodd" clip-rule="evenodd" d="M108.333 27.942H102.346C102.37 28.7536 102.659 29.4652 103.215 29.9321C103.719 30.3518 104.371 30.5434 105.173 30.5434C106.061 30.5434 106.865 30.393 107.593 30.1053L107.907 31.4882C107.061 31.8607 106.054 32.0388 104.894 32.0388C103.505 32.0388 102.412 31.6305 101.617 30.8119C100.823 29.9932 100.423 28.8933 100.423 27.5148C100.423 26.1575 100.794 25.0327 101.531 24.1298C102.311 23.1706 103.358 22.6912 104.673 22.6912C105.971 22.6912 106.949 23.1704 107.611 24.1296C108.139 24.8955 108.406 25.8765 108.406 26.9975C108.406 27.3518 108.38 27.7101 108.333 27.942ZM99.826 24.6479C99.7101 24.6121 99.4024 24.5973 99.1823 24.5973C98.4804 24.5973 97.9324 24.8617 97.5496 25.3903C97.2162 25.8593 97.0434 26.4418 97.0434 27.162V31.7681H95.0724V25.7175C95.0724 24.689 95.0296 23.7681 94.9945 22.8405H96.7305L96.8047 24.6956H96.8594C97.068 24.1159 97.3987 23.5887 97.857 23.2344C98.3005 22.9105 98.7983 22.7344 99.3153 22.7344C99.4983 22.7344 99.7101 22.7231 99.826 22.7473V24.6479ZM92.612 30.7116C91.7845 31.6207 90.6884 32.0758 89.3244 32.0758C88.0041 32.0758 86.9513 31.6389 86.1697 30.7641C85.3888 29.8922 84.9994 28.7854 84.9994 27.4569C84.9994 26.0667 85.4017 24.9258 86.2082 24.0405C87.0161 23.1502 88.1 22.7127 89.4668 22.7127C90.7897 22.7127 91.8481 23.1454 92.6485 24.0242C93.4099 24.8692 93.792 25.9689 93.792 27.3098C93.7918 28.6934 93.4003 29.8221 92.612 30.7116ZM84.4057 24.4637H82.3188V28.7529C82.3188 29.8606 82.6624 30.4097 83.4387 30.4097C83.7958 30.4097 84.0651 30.3836 84.3013 30.3227L84.3462 31.834C83.9513 31.9819 83.4291 32.0569 82.7886 32.0569C82.0042 32.0569 81.3631 31.8199 80.921 31.3361C80.4735 30.858 80.2318 30.0503 80.2318 28.917V24.4637H78.9565V22.8405H80.2318V21.2503L82.3188 20.6589V22.8405H84.4057V24.4637ZM77.3925 30.966C76.5779 31.6937 75.4485 32.0554 73.9997 32.0554C72.657 32.0554 71.5834 31.7954 70.7727 31.2805L71.2362 29.6181C72.11 30.133 73.07 30.3944 74.1145 30.3944C74.869 30.3944 75.4526 30.2228 75.8718 29.8865C76.2883 29.549 76.498 29.0969 76.498 28.5232C76.498 28.0251 76.3253 27.5998 75.9826 27.2529C75.6345 26.9088 75.0664 26.5909 74.2649 26.2925C72.0871 25.482 70.9961 24.2935 70.9961 22.7294C70.9961 21.7075 71.3766 20.8673 72.1478 20.2152C72.9176 19.564 73.9366 19.2366 75.2067 19.2366C76.3391 19.2366 77.282 19.4352 78.0346 19.8266L77.5311 21.453C76.8292 21.0723 76.0314 20.8794 75.1415 20.8794C74.4381 20.8794 73.8866 21.0584 73.4898 21.3951C73.1581 21.7075 72.9915 22.0829 72.9915 22.5248C72.9915 23.0142 73.1827 23.4225 73.5635 23.7473C73.8971 24.0416 74.5008 24.3601 75.3722 24.7044C76.4474 25.1323 77.2328 25.6404 77.7397 26.2209C78.2432 26.7994 78.497 27.5189 78.497 28.3794C78.4968 29.4401 78.1262 30.3045 77.3925 30.966ZM65.8645 30.8964C65.121 31.6813 64.1933 32.0758 63.0897 32.0758C61.9014 32.0758 61.1013 31.6519 60.5216 30.7987V35.5941H58.5506V25.8439C58.5506 24.8842 58.5139 23.9999 58.4659 22.8405H60.2163L60.3318 24.3478H60.3661C61.0358 23.3043 62.0421 22.7287 63.3968 22.7287C64.4566 22.7287 65.3404 23.1361 66.0484 23.9755C66.7584 24.811 67.1117 25.9119 67.1117 27.2782C67.1117 28.8094 66.6969 30.0076 65.8645 30.8964ZM56.0001 30.8964C55.2584 31.6813 54.3322 32.0758 53.2316 32.0758C52.0398 32.0758 51.2463 31.6519 50.6666 30.7987V35.5941H48.6956V25.8439C48.6956 24.8842 48.6499 23.9999 48.5994 22.8405H50.3545L50.4648 24.3478H50.4995C51.1682 23.3043 52.1763 22.7287 53.533 22.7287C54.5921 22.7287 55.4736 23.1361 56.1859 23.9755C56.8917 24.811 57.247 25.9119 57.247 27.2782C57.2471 28.8094 56.8324 30.0076 56.0001 30.8964ZM45.3301 31.7681L44.1674 28.1738H40.1203L39.0104 31.7681H36.9434L40.9488 19.3623H43.4271L47.4565 31.7681H45.3301ZM104.526 24.0741C103.875 24.0741 103.346 24.4078 102.937 24.9465C102.605 25.3765 102.406 25.855 102.346 26.5507H106.502C106.513 25.855 106.387 25.3968 106.116 24.9634C105.77 24.4113 105.239 24.0741 104.526 24.0741ZM42.1334 21.1014H42.0986C41.9732 21.6811 41.7788 22.4527 41.5054 23.4886L40.4704 26.7825H43.8133L42.7647 23.4886C42.6513 23.1546 42.4397 22.2608 42.1334 21.1014ZM62.7508 24.2962C62.2564 24.2962 61.8148 24.4581 61.4128 24.7842C61.0126 25.1147 60.7428 25.5427 60.6188 26.0726C60.5574 26.321 60.5217 26.5223 60.5217 26.6835V28.1777C60.5217 28.8318 60.7256 29.3846 61.1277 29.8343C61.5271 30.2796 62.0519 30.5058 62.6893 30.5058C63.4447 30.5058 64.0304 30.2181 64.4497 29.6378C64.8694 29.0586 65.0806 28.2954 65.0806 27.3443C65.0806 26.4722 64.8825 25.7508 64.4897 25.1858C64.0555 24.5973 63.4764 24.2962 62.7508 24.2962ZM89.3938 24.172C88.5953 24.172 87.9852 24.5263 87.5688 25.2398C87.2077 25.827 87.0308 26.5438 87.0308 27.3915C87.0308 28.2178 87.2076 28.9221 87.5688 29.5107C87.9953 30.2228 88.5994 30.5771 89.379 30.5771C90.1376 30.5771 90.7377 30.2179 91.1662 29.4885C91.5382 28.8927 91.7237 28.1777 91.7237 27.3572C91.7237 26.5356 91.5455 25.827 91.1904 25.2398C90.766 24.5263 90.1707 24.172 89.3938 24.172ZM52.8837 24.2962C52.3919 24.2962 51.9477 24.4581 51.5461 24.7842C51.1449 25.1147 50.883 25.5427 50.759 26.0726C50.6984 26.321 50.6666 26.5223 50.6666 26.6835V28.1777C50.6666 28.8318 50.8645 29.3846 51.2673 29.8343C51.6667 30.2796 52.1887 30.5058 52.828 30.5058C53.5776 30.5058 54.1672 30.2181 54.5851 29.6378C55.0038 29.0586 55.2114 28.2954 55.2114 27.3443C55.2114 26.4722 55.0169 25.7508 54.6223 25.1858C54.1893 24.5973 53.6113 24.2962 52.8837 24.2962Z" fill="white"/>
<path d="M42.6476 16.0975C42.3837 16.2339 41.8013 16.3705 41.0641 16.3705C39.1167 16.3705 37.9336 15.151 37.9336 13.2854C37.9336 11.2651 39.3351 10.0457 41.2098 10.0457C41.9469 10.0457 42.4747 10.2003 42.7023 10.3187L42.4566 11.2105C42.1654 11.0831 41.765 10.9739 41.2553 10.9739C40.0086 10.9739 39.1076 11.7565 39.1076 13.2308C39.1076 14.5777 39.8994 15.4422 41.2462 15.4422C41.7011 15.4422 42.1744 15.3512 42.4657 15.2147L42.6476 16.0975Z" fill="white"/>
<path d="M44.677 11.8477V13.6859H44.8409L46.206 11.8477H47.5345L45.7691 13.7951C46.3788 13.8861 46.7519 14.3685 47.0522 15.0783C47.1888 15.4059 47.3525 15.8973 47.5527 16.2795H46.3879C46.2695 16.0885 46.1422 15.7608 45.9784 15.3331C45.7417 14.7324 45.405 14.4413 44.8227 14.4413H44.677V16.2795H43.5576V11.8477H44.677Z" fill="white"/>
<path d="M50.757 16.2794L50.6842 15.788H50.6569C50.3839 16.1338 49.9198 16.3796 49.3465 16.3796C48.4546 16.3796 47.9541 15.7334 47.9541 15.06C47.9541 13.9406 48.9461 13.3764 50.5841 13.3856V13.3128C50.5841 13.0215 50.4658 12.5392 49.6831 12.5392C49.2463 12.5392 48.7913 12.6757 48.4909 12.8669L48.2725 12.1389C48.6001 11.9386 49.1735 11.7476 49.8741 11.7476C51.2938 11.7476 51.7033 12.6485 51.7033 13.6132V15.2148C51.7033 15.6153 51.7215 16.0066 51.767 16.2796H50.757V16.2794ZM50.6114 14.1135C49.8196 14.0953 49.0642 14.2681 49.0642 14.9416C49.0642 15.3785 49.3465 15.5786 49.7013 15.5786C50.1473 15.5786 50.4749 15.2874 50.575 14.9689C50.6022 14.8869 50.6114 14.796 50.6114 14.7232V14.1135Z" fill="white"/>
<path d="M53.8234 11.8477V13.24C53.8234 13.7678 54.0145 14.0772 54.597 14.0772C54.8791 14.0772 55.1703 13.9681 55.3523 13.8315V11.8477H56.4716V16.2795H55.3523V14.5777H55.3341C55.052 14.7598 54.597 14.878 54.1784 14.878C53.2774 14.878 52.7041 14.3867 52.7041 13.3583V11.8477H53.8234Z" fill="white"/>
<path d="M58.7209 11.8477V13.4402C58.7209 14.141 58.6937 14.6141 58.6573 15.233H58.6847C58.9213 14.7143 59.0578 14.3867 59.2852 13.9226L60.3773 11.8477H61.7332V16.2795H60.6684V14.6961C60.6684 13.9862 60.6957 13.6587 60.7412 12.8215H60.7048C60.4864 13.3492 60.3408 13.6678 60.1225 14.0955C59.7767 14.7507 59.3761 15.5517 58.994 16.2797H57.6562V11.8478H58.7209V11.8477Z" fill="white"/>
<path d="M62.916 11.9022C63.2437 11.8476 63.9171 11.793 64.5268 11.793C65.2731 11.793 66.6199 11.893 66.6199 12.9123C66.6199 13.4766 66.183 13.7951 65.7099 13.8952V13.9134C66.3651 14.0135 66.8201 14.3775 66.8201 14.9963C66.8201 16.2158 65.2185 16.3341 64.3266 16.3341C63.7714 16.3341 63.1799 16.2978 62.916 16.2704V11.9022ZM63.999 15.6061C64.1811 15.6243 64.3175 15.6334 64.545 15.6334C65.0547 15.6334 65.6735 15.497 65.6735 14.9782C65.6735 14.4777 65.182 14.3139 64.4813 14.3139H63.999V15.6061ZM64.0081 13.6403H64.4722C65.0455 13.6403 65.5187 13.4764 65.5187 13.0579C65.5187 12.703 65.2093 12.5119 64.545 12.5119C64.3266 12.5119 64.1809 12.5301 64.0081 12.5482V13.6403Z" fill="white"/>
<path d="M70.2511 16.2794L70.1783 15.788H70.1511C69.878 16.1338 69.4139 16.3796 68.8406 16.3796C67.9488 16.3796 67.4482 15.7334 67.4482 15.06C67.4482 13.9406 68.4402 13.3764 70.0783 13.3856V13.3128C70.0783 13.0215 69.9599 12.5392 69.1773 12.5392C68.7404 12.5392 68.2855 12.6757 67.9851 12.8669L67.7666 12.1389C68.0943 11.9386 68.6676 11.7476 69.3682 11.7476C70.788 11.7476 71.1975 12.6485 71.1975 13.6132V15.2148C71.1975 15.6153 71.2157 16.0066 71.2611 16.2796H70.2511V16.2794ZM70.1055 14.1135C69.3137 14.0953 68.5584 14.2681 68.5584 14.9416C68.5584 15.3785 68.8406 15.5786 69.1955 15.5786C69.6414 15.5786 69.9691 15.2874 70.0691 14.9689C70.0964 14.8869 70.1055 14.796 70.1055 14.7232V14.1135Z" fill="white"/>
<path d="M73.4368 11.8476V13.4402C73.4368 14.141 73.4095 14.6141 73.3731 15.233H73.4005C73.6371 14.7143 73.7736 14.3867 74.0011 13.9225L75.0931 11.8476H76.4491V16.2795H75.3842V14.6961C75.3842 13.9862 75.4115 13.6587 75.4571 12.8214H75.4206C75.2022 13.3492 75.0566 13.6678 74.8383 14.0955C74.4925 14.7507 74.092 15.5516 73.7098 16.2796H72.3721V11.8478H73.4368V11.8476ZM73.901 10.0366C73.9192 10.4279 74.083 10.7009 74.3924 10.7009C74.72 10.7009 74.8838 10.4279 74.9202 10.0366H75.6574C75.6118 10.8284 75.1205 11.2469 74.3743 11.2469C73.5553 11.2469 73.1912 10.7464 73.1548 10.0366H73.901Z" fill="white"/>
<path d="M80.8899 11.8477V12.7122H79.5613V16.2797H78.4419V12.7122H77.1133V11.8477H80.8899Z" fill="white"/>
<path d="M82.2283 14.3776C82.2555 15.1784 82.8834 15.5243 83.5932 15.5243C84.112 15.5243 84.4851 15.4514 84.8218 15.324L84.9856 16.0976C84.6033 16.2522 84.0756 16.3706 83.4385 16.3706C82.0007 16.3706 81.1543 15.4878 81.1543 14.1319C81.1543 12.9034 81.9006 11.7476 83.3202 11.7476C84.758 11.7476 85.2313 12.9306 85.2313 13.9044C85.2313 14.1138 85.2131 14.2775 85.1949 14.3777H82.2283V14.3776ZM84.1757 13.595C84.1849 13.1855 84.0029 12.5121 83.2567 12.5121C82.565 12.5121 82.2737 13.14 82.2283 13.595H84.1757Z" fill="white"/>
<path d="M88.0078 11.9022C88.3355 11.8476 89.0089 11.793 89.6186 11.793C90.3648 11.793 91.7117 11.893 91.7117 12.9123C91.7117 13.4766 91.2748 13.7951 90.8017 13.8952V13.9134C91.4569 14.0135 91.9119 14.3775 91.9119 14.9963C91.9119 16.2158 90.3103 16.3341 89.4185 16.3341C88.8633 16.3341 88.2718 16.2978 88.0079 16.2704V11.9022H88.0078ZM89.0907 15.6061C89.2727 15.6243 89.4092 15.6334 89.6367 15.6334C90.1464 15.6334 90.7651 15.497 90.7651 14.9782C90.7651 14.4777 90.2738 14.3139 89.573 14.3139H89.0907V15.6061ZM89.0999 13.6403H89.564C90.1373 13.6403 90.6105 13.4764 90.6105 13.0579C90.6105 12.703 90.3011 12.5119 89.6368 12.5119C89.4184 12.5119 89.2727 12.5301 89.0999 12.5482V13.6403Z" fill="white"/>
</g>
<defs>
<clipPath id="clip0_652_744">
<rect width="139" height="42" fill="white"/>
</clipPath>
</defs>
</svg>
