<svg width="159" height="42" viewBox="0 0 159 42" fill="none" xmlns="http://www.w3.org/2000/svg">
<rect y="1" width="159" height="40" fill="#222222"/>
<path d="M10.9335 8.51392C10.6518 8.61164 10.4326 8.87238 10.4326 9.20928V33.4937C10.4326 33.8279 10.6482 34.0869 10.9263 34.1866L23.9465 21.3467L10.9335 8.51392Z" fill="#00D6FF"/>
<path d="M27.6148 17.7295L11.5478 8.57032C11.3465 8.45569 11.1257 8.44724 10.9336 8.51387L23.9468 21.3467L27.6148 17.7295Z" fill="#00F076"/>
<path d="M11.5471 34.1327L27.6202 24.9701L23.946 21.3469L10.9258 34.1866C11.1196 34.256 11.3434 34.2488 11.5471 34.1327Z" fill="#FF3A44"/>
<path d="M27.6205 24.97L32.8472 21.9904C33.3445 21.7068 33.3445 20.9959 32.8472 20.7125L27.6144 17.7295L23.9463 21.3467L27.6205 24.97Z" fill="#FFD000"/>
<path d="M62.1928 24.1109C59.8917 24.1109 58.0699 25.8209 58.0699 28.1959C58.0699 30.4759 59.8917 32.2809 62.1928 32.2809C64.4939 32.2809 66.3157 30.5709 66.3157 28.1959C66.3157 25.7259 64.4939 24.1109 62.1928 24.1109ZM62.1928 30.5709C60.9464 30.5709 59.8917 29.5259 59.8917 28.1009C59.8917 26.6758 60.9464 25.6308 62.1928 25.6308C63.4392 25.6308 64.4939 26.5808 64.4939 28.1009C64.4939 29.5259 63.4392 30.5709 62.1928 30.5709ZM53.2758 24.1109C50.9747 24.1109 49.1529 25.8209 49.1529 28.1959C49.1529 30.4759 50.9747 32.2809 53.2758 32.2809C55.5769 32.2809 57.3987 30.5709 57.3987 28.1959C57.3988 25.7259 55.577 24.1109 53.2758 24.1109ZM53.2758 30.5709C52.0294 30.5709 50.9747 29.5259 50.9747 28.1009C50.9747 26.6758 52.0294 25.6308 53.2758 25.6308C54.5222 25.6308 55.5769 26.5808 55.5769 28.1009C55.577 29.5259 54.5223 30.5709 53.2758 30.5709ZM42.633 25.3458V27.0559H46.7559C46.66 28.0058 46.2764 28.7659 45.7971 29.2409C45.2218 29.8109 44.2629 30.4759 42.633 30.4759C40.0442 30.4759 38.1266 28.4809 38.1266 25.9158C38.1266 23.3507 40.1401 21.3558 42.633 21.3558C43.9753 21.3558 45.03 21.9257 45.7971 22.5907L47.0435 21.3558C45.9888 20.4058 44.6465 19.6458 42.7288 19.6458C39.2771 19.6458 36.3047 22.4958 36.3047 25.9158C36.3047 29.3358 39.277 32.1859 42.7288 32.1859C44.6465 32.1859 45.9888 31.6159 47.1393 30.3808C48.2899 29.2408 48.6734 27.6258 48.6734 26.3909C48.6734 26.0108 48.6734 25.6308 48.5775 25.3458H42.633ZM86.1631 26.6758C85.7796 25.7259 84.8208 24.1108 82.7114 24.1108C80.602 24.1108 78.8762 25.7257 78.8762 28.1958C78.8762 30.4757 80.602 32.2808 82.9031 32.2808C84.7249 32.2808 85.8754 31.1407 86.2589 30.4757L84.9166 29.5258C84.4371 30.1908 83.8619 30.6658 82.9031 30.6658C81.9443 30.6658 81.369 30.2858 80.8896 29.4309L86.3548 27.1509L86.1631 26.6758ZM80.602 28.0059C80.602 26.4859 81.8484 25.631 82.7114 25.631C83.3826 25.631 84.0537 26.011 84.2456 26.486L80.602 28.0059ZM76.0956 31.9009H77.9174V20.0258H76.0956V31.9009ZM73.2191 24.9658C72.7397 24.4908 71.9727 24.0159 71.0138 24.0159C69.0003 24.0159 67.0826 25.8209 67.0826 28.1009C67.0826 30.3808 68.9044 32.0908 71.0138 32.0908C71.9726 32.0908 72.7397 31.6158 73.1232 31.1409H73.2191V31.7108C73.2191 33.2309 72.3561 34.0858 71.0138 34.0858C69.9591 34.0858 69.192 33.3258 69.0003 32.6608L67.4662 33.3258C67.9456 34.3708 69.0961 35.7008 71.1097 35.7008C73.2191 35.7008 74.945 34.4658 74.945 31.5207V24.3007H73.2191V24.9658ZM71.1097 30.5709C69.8633 30.5709 68.8086 29.5259 68.8086 28.1009C68.8086 26.6758 69.8633 25.6308 71.1097 25.6308C72.3561 25.6308 73.315 26.6758 73.315 28.1009C73.315 29.5259 72.3563 30.5709 71.1097 30.5709ZM94.5048 20.0259H90.1901V31.901H92.0119V27.436H94.5048C96.5183 27.436 98.436 26.011 98.436 23.731C98.436 21.451 96.5184 20.0259 94.5048 20.0259ZM94.6007 25.7259H92.0119V21.6409H94.6007C95.943 21.6409 96.7101 22.7809 96.7101 23.6358C96.6142 24.6809 95.8471 25.7259 94.6007 25.7259ZM105.627 24.0159C104.285 24.0159 102.942 24.5858 102.463 25.8209L104.093 26.4859C104.477 25.8209 105.052 25.6308 105.723 25.6308C106.682 25.6308 107.545 26.2008 107.641 27.1509V27.2459C107.353 27.056 106.586 26.7709 105.819 26.7709C104.093 26.7709 102.367 27.7208 102.367 29.4309C102.367 31.0458 103.805 32.0908 105.339 32.0908C106.586 32.0908 107.161 31.5209 107.641 30.9508H107.736V31.9008H109.462V27.3407C109.271 25.2509 107.641 24.0159 105.627 24.0159ZM105.435 30.5709C104.86 30.5709 103.997 30.2859 103.997 29.5259C103.997 28.5759 105.052 28.2909 105.915 28.2909C106.682 28.2909 107.065 28.4809 107.545 28.6709C107.353 29.8109 106.394 30.5709 105.435 30.5709ZM115.503 24.3008L113.489 29.4309H113.393L111.284 24.3008H109.366L112.53 31.5209L110.709 35.5108H112.53L117.42 24.3007H115.503V24.3008ZM99.3947 31.9009H101.217V20.0258H99.3947V31.9009Z" fill="white"/>
<path d="M41.4021 14.7214C40.9057 15.2834 40.3237 15.5566 39.6227 15.5566C38.9953 15.5566 38.4588 15.3442 38.0283 14.9254C37.5983 14.5073 37.3803 13.9495 37.3803 13.2672C37.3803 12.5851 37.5983 12.0271 38.0283 11.609C38.4591 11.1903 38.9955 10.9779 39.6227 10.9779C40.3042 10.9779 40.8267 11.2139 41.22 11.6995L41.3049 11.8043L42.0309 11.1075L41.9547 11.0201C41.3597 10.3372 40.575 9.99097 39.6228 9.99097C38.6965 9.99097 37.9082 10.3066 37.2799 10.9292C36.6517 11.5517 36.333 12.3384 36.333 13.2673C36.333 14.1964 36.6517 14.9831 37.2799 15.6055C37.9081 16.228 38.6963 16.5437 39.6228 16.5437C40.1323 16.5437 40.6109 16.4419 41.0452 16.2413C41.4799 16.0406 41.8465 15.7642 42.1349 15.42L42.2068 15.3342L41.4891 14.6229L41.4021 14.7214Z" fill="white"/>
<path d="M49.9547 10.1616L47.6756 16.1319L45.3845 12.8875L47.6369 10.3277V10.1616H46.4001L43.8052 13.0674V10.1616H42.8164V16.4074H43.8052V14.5862L44.6376 13.668L46.5969 16.4074H47.5635H47.7467H48.697L49.2928 14.8154H51.6805L52.2678 16.4074H53.4018L51.0106 10.1616H49.9547ZM51.3192 13.8356H49.646L50.4827 11.5473L51.3192 13.8356Z" fill="white"/>
<path d="M56.9066 12.5665C56.6594 12.927 56.2192 13.1025 55.6968 13.1025C55.335 13.1025 55.0451 13.0081 54.8546 12.8216C54.6616 12.6331 54.5582 12.3706 54.5582 12.0191V10.1616H53.5693V12.1542C53.5693 12.7391 53.7556 13.2125 54.15 13.5611C54.5404 13.9062 55.025 14.0813 55.6043 14.0813C56.1396 14.0813 56.5762 13.9292 56.9353 13.6287L56.9066 13.8237V16.4074H58.019V10.1616H56.9066V12.5665Z" fill="white"/>
<path d="M59.751 14.5719L59.7496 13.7816V10.1616H58.7607V16.4074H59.7768L62.7218 11.7531L62.716 12.5251V16.4074H63.7048V10.1616H62.5674L59.751 14.5719Z" fill="white"/>
<path d="M68.2064 13.1536C68.3859 13.0409 68.5369 12.8958 68.6572 12.7204C68.8211 12.4814 68.9041 12.2029 68.9041 11.8927C68.9041 11.3865 68.7143 10.9781 68.3399 10.6434C67.9692 10.3118 67.5247 10.1616 67.0188 10.1616H64.6934V16.4074H67.138C67.6664 16.4074 68.131 16.2329 68.5185 15.8876C68.9099 15.5389 69.1084 15.0942 69.1084 14.5657C69.1084 14.2136 69.0024 13.8992 68.7932 13.6307C68.6332 13.4256 68.4364 13.2658 68.2064 13.1536ZM67.6382 12.4731C67.4826 12.6419 67.28 12.7334 67.0188 12.7334H65.6822V11.1414H67.0528C67.3019 11.1414 67.4959 11.2076 67.6458 11.3731C67.7992 11.5426 67.8739 11.7203 67.8739 11.9213C67.8739 12.1221 67.7968 12.3009 67.6382 12.4731ZM67.8117 15.1536C67.6476 15.336 67.4383 15.4277 67.1721 15.4277H65.6822V13.7132H67.138C67.4167 13.7132 67.635 13.787 67.8049 13.9678C67.9773 14.1513 68.0612 14.3406 68.0612 14.5576C68.0613 14.7759 67.9796 14.9671 67.8117 15.1536Z" fill="white"/>
<path d="M71.5719 10.1616L69.1807 16.4074H70.3142L70.91 14.8154H73.2977L73.885 16.4074H75.019L72.6278 10.1616H71.5719ZM72.9365 13.8356H71.2632L72.0999 11.5473L72.9365 13.8356Z" fill="white"/>
<path d="M77.8786 9.91537C78.1997 9.91537 78.4573 9.80037 78.6957 9.57344C78.9355 9.34516 79.0311 9.06153 79.0311 8.73038V8.56958H78.1658V8.73038C78.1658 8.82982 78.1585 8.91359 78.0934 8.9867C78.0316 9.05626 77.9677 9.08859 77.8664 9.08859C77.7601 9.08859 77.6915 9.05614 77.6304 8.98952C77.5661 8.91935 77.5478 8.8346 77.5478 8.73026V8.56958H76.6826V8.73038C76.6826 9.06214 76.7947 9.34626 77.0408 9.57454C77.2847 9.80074 77.5581 9.91537 77.8786 9.91537Z" fill="white"/>
<path d="M76.4267 14.5719L76.4361 13.7816V10.1616H75.4473V16.4074H76.4414L79.3973 11.7531L79.4025 12.5251V16.4074H80.3913V10.1616H79.2321L76.4267 14.5719Z" fill="white"/>
<path d="M80.8857 11.1414H82.6162V16.4074H83.7286V11.1414H85.3354V10.1616H80.8857V11.1414Z" fill="white"/>
<path d="M85.9531 16.4074H89.7848V15.4277H87.0655V13.7132H89.5376V12.7334H87.0655V11.1414H89.7848V10.1616H85.9531V16.4074Z" fill="white"/>
<path d="M96.5898 13.6309C96.4299 13.4257 96.2331 13.2658 96.0031 13.1536C96.1825 13.0409 96.3337 12.8958 96.4538 12.7204C96.6177 12.4814 96.7008 12.2029 96.7008 11.8927C96.7008 11.3867 96.511 10.9781 96.1366 10.6434C95.7659 10.3118 95.3213 10.1616 94.8154 10.1616H92.5039V16.4074H94.9345C95.4629 16.4074 95.9274 16.2329 96.3152 15.8876C96.7066 15.5389 96.905 15.0942 96.905 14.5657C96.905 14.2134 96.7989 13.8993 96.5898 13.6309ZM95.4349 12.4731C95.2791 12.6419 95.0767 12.7334 94.8154 12.7334H93.4927V11.1414H94.8495C95.0987 11.1414 95.2926 11.2076 95.4427 11.3731C95.5961 11.5427 95.6707 11.7204 95.6707 11.9213C95.6706 12.1219 95.5935 12.3007 95.4349 12.4731ZM95.6083 15.1536C95.4442 15.336 95.2349 15.4277 94.9685 15.4277H93.4927V13.7132H94.9345C95.2133 13.7132 95.4315 13.787 95.6015 13.9678C95.774 14.1515 95.8577 14.3406 95.8577 14.5576C95.8578 14.7759 95.7763 14.9671 95.6083 15.1536Z" fill="white"/>
</svg>
